<mxfile host="app.diagrams.net" modified="2024-01-22T14:06:42.188Z" agent="Mozilla/5.0 (Windows NT 10.0; Win64; x64) AppleWebKit/537.36 (KHTML, like Gecko) Chrome/120.0.0.0 Safari/537.36" etag="-7Qf49bulPW6ivO7wUW7" version="22.1.21" type="github">
  <diagram name="Page-1" id="63QLinHgHfmJOyHSGzIt">
    <mxGraphModel dx="954" dy="618" grid="1" gridSize="10" guides="1" tooltips="1" connect="1" arrows="1" fold="1" page="1" pageScale="1" pageWidth="850" pageHeight="1100" math="0" shadow="0">
      <root>
        <mxCell id="0" />
        <mxCell id="1" parent="0" />
        <mxCell id="b4AF8uoCh7XE69L3uc8W-4" style="edgeStyle=orthogonalEdgeStyle;rounded=0;orthogonalLoop=1;jettySize=auto;html=1;entryX=0.5;entryY=0;entryDx=0;entryDy=0;" edge="1" parent="1" source="b4AF8uoCh7XE69L3uc8W-1" target="b4AF8uoCh7XE69L3uc8W-2">
          <mxGeometry relative="1" as="geometry" />
        </mxCell>
        <mxCell id="b4AF8uoCh7XE69L3uc8W-1" value="Start" style="rounded=1;whiteSpace=wrap;html=1;" vertex="1" parent="1">
          <mxGeometry x="340" y="60" width="120" height="60" as="geometry" />
        </mxCell>
        <mxCell id="b4AF8uoCh7XE69L3uc8W-5" style="edgeStyle=orthogonalEdgeStyle;rounded=0;orthogonalLoop=1;jettySize=auto;html=1;" edge="1" parent="1" source="b4AF8uoCh7XE69L3uc8W-2" target="b4AF8uoCh7XE69L3uc8W-6">
          <mxGeometry relative="1" as="geometry">
            <mxPoint x="240" y="400" as="targetPoint" />
          </mxGeometry>
        </mxCell>
        <mxCell id="b4AF8uoCh7XE69L3uc8W-8" style="edgeStyle=orthogonalEdgeStyle;rounded=0;orthogonalLoop=1;jettySize=auto;html=1;" edge="1" parent="1" source="b4AF8uoCh7XE69L3uc8W-2" target="b4AF8uoCh7XE69L3uc8W-9">
          <mxGeometry relative="1" as="geometry">
            <mxPoint x="600" y="370" as="targetPoint" />
          </mxGeometry>
        </mxCell>
        <mxCell id="b4AF8uoCh7XE69L3uc8W-2" value="Ride &amp;gt; 100" style="rhombus;whiteSpace=wrap;html=1;" vertex="1" parent="1">
          <mxGeometry x="340" y="220" width="120" height="100" as="geometry" />
        </mxCell>
        <mxCell id="b4AF8uoCh7XE69L3uc8W-6" value="Not allowed" style="rounded=1;whiteSpace=wrap;html=1;" vertex="1" parent="1">
          <mxGeometry x="180" y="370" width="120" height="60" as="geometry" />
        </mxCell>
        <mxCell id="b4AF8uoCh7XE69L3uc8W-7" value="NO" style="text;html=1;align=center;verticalAlign=middle;resizable=0;points=[];autosize=1;strokeColor=none;fillColor=none;" vertex="1" parent="1">
          <mxGeometry x="254" y="238" width="40" height="30" as="geometry" />
        </mxCell>
        <mxCell id="b4AF8uoCh7XE69L3uc8W-9" value="Yes allowed" style="rounded=1;whiteSpace=wrap;html=1;" vertex="1" parent="1">
          <mxGeometry x="500" y="370" width="120" height="60" as="geometry" />
        </mxCell>
        <mxCell id="b4AF8uoCh7XE69L3uc8W-10" value="Yes" style="text;html=1;align=center;verticalAlign=middle;resizable=0;points=[];autosize=1;strokeColor=none;fillColor=none;" vertex="1" parent="1">
          <mxGeometry x="480" y="238" width="50" height="30" as="geometry" />
        </mxCell>
      </root>
    </mxGraphModel>
  </diagram>
</mxfile>
